<svg xmlns="http://www.w3.org/2000/svg" width="829" height="563" viewBox="0 0 829 563" version="1.1"><path d="M 12 37.957 C 12 38.483, 13.549 44.958, 15.443 52.346 C 23.118 82.293, 36.278 108.777, 49.456 120.796 C 60.256 130.647, 80.976 139.024, 115.500 147.498 C 131.315 151.379, 141.142 153.407, 173 159.360 L 180.500 160.762 173 160.878 C 152.133 161.200, 80.712 157.016, 62.370 154.397 C 56.249 153.522, 50.565 152.963, 49.738 153.153 C 48.610 153.414, 50.270 157.113, 56.399 168 C 70.007 192.172, 76.384 200.385, 92.304 214.246 L 101.500 222.252 122 221.613 C 133.275 221.261, 156.900 220.529, 174.500 219.987 C 192.100 219.445, 207.817 219.362, 209.426 219.803 C 212.145 220.547, 211.826 220.759, 204.926 222.794 C 194.078 225.992, 176.308 229.431, 149.854 233.450 C 113.555 238.966, 100.609 241.127, 99.216 241.902 C 97.248 242.998, 118.203 262.877, 128.107 269.310 C 139.269 276.559, 151.116 282.407, 162.087 286.083 C 175.807 290.679, 185.993 290.193, 207.060 283.934 C 225.357 278.499, 242.826 270.932, 253.048 264.015 C 260.174 259.193, 265.027 256.693, 265.787 257.454 C 266.832 258.498, 253.988 270.797, 240.500 281.668 C 233.350 287.430, 220.202 296.950, 211.283 302.823 C 202.363 308.695, 195.051 313.764, 195.033 314.087 C 194.972 315.175, 217.422 323.792, 227 326.357 C 249.293 332.328, 264.848 333.569, 273.964 330.106 C 279.933 327.837, 288.955 321.520, 298.500 312.923 C 302.350 309.456, 306.568 305.692, 307.873 304.559 L 310.246 302.500 308.011 307 C 305.369 312.320, 296.892 323.906, 288.987 333 C 280.799 342.420, 278.821 345.596, 279.183 348.741 C 279.739 353.558, 283.390 354.500, 301.500 354.500 C 316.693 354.500, 317.718 354.375, 321.823 352.025 C 326.344 349.436, 331.711 342.215, 337.966 330.306 C 339.755 326.899, 342.126 323.299, 343.235 322.306 C 345.224 320.523, 345.240 320.545, 344.519 324 C 344.118 325.925, 342.234 331.550, 340.334 336.500 C 330.741 361.494, 330.426 360.419, 346.500 357.515 C 356.148 355.772, 357 355.728, 357 356.967 C 357 357.498, 353.287 362.491, 348.750 368.062 C 337.917 381.362, 336 384.092, 336 386.222 C 336 387.427, 336.766 388, 338.378 388 C 342.399 388, 343.455 390.283, 341.965 395.757 C 340.291 401.901, 336.522 410.560, 335.151 411.407 C 334.561 411.771, 330.932 410.421, 327.087 408.407 C 320.879 405.155, 319.472 404.796, 314.540 405.205 C 307.941 405.752, 304 408.732, 304 413.174 C 304 416.866, 305.886 416.820, 311.159 413 C 315.939 409.537, 318.030 409.270, 320.345 411.829 C 322.947 414.704, 322.358 416.583, 317 422.500 C 311.976 428.047, 310.568 432, 313.615 432 C 314.503 432, 318.713 428.611, 322.969 424.468 L 330.709 416.936 338.552 426.468 C 342.865 431.711, 346.694 436, 347.060 436 C 347.426 436, 346.890 432.512, 345.870 428.250 C 342.400 413.749, 343.681 407.491, 352.132 397.673 C 356.629 392.449, 357.956 392.680, 357.985 398.691 C 357.993 400.446, 358.409 402.135, 358.909 402.444 C 360.202 403.243, 364.163 398.232, 369.111 389.534 C 371.456 385.413, 373.547 382.213, 373.757 382.424 C 373.968 382.634, 373.423 387.013, 372.548 392.153 C 368.343 416.838, 356.661 442.775, 339.514 465.500 C 326.045 483.351, 326.078 486.149, 339.720 482.648 C 351.202 479.701, 359.088 475.996, 367.629 469.535 C 368.330 469.005, 369.176 468.843, 369.509 469.176 C 369.842 469.509, 369.338 476.018, 368.390 483.640 C 366.478 499.007, 366.928 506.708, 370.034 511.816 C 371.138 513.630, 372.803 515, 373.905 515 C 377.979 515, 396 490.828, 396 485.363 C 396 483.175, 398.353 480, 399.974 480 C 401.665 480, 403.114 486.840, 403.999 499 C 405.624 521.356, 411.222 540.599, 417.191 544.352 C 423.211 548.137, 431.059 526.923, 433.046 501.500 C 434.101 487.983, 435.336 481.528, 437.071 480.456 C 438.766 479.409, 440.715 481.822, 441.362 485.769 C 442.150 490.578, 448.352 499.831, 456.101 507.758 C 462.287 514.087, 466.235 516.165, 468.249 514.151 C 470.303 512.097, 470.815 502.561, 469.717 486.771 C 469.116 478.121, 468.914 470.752, 469.270 470.397 C 469.625 470.042, 471.397 471.003, 473.208 472.533 C 480.654 478.825, 503.757 485.878, 507.902 483.125 C 509.732 481.910, 506.596 476.451, 497.462 464.952 C 482.066 445.569, 470.044 419.680, 465.615 396.375 C 462.368 379.284, 462.285 379.433, 468.863 390.549 C 472.133 396.075, 475.520 401.187, 476.388 401.907 C 477.743 403.031, 478.111 402.838, 478.983 400.544 C 479.543 399.073, 480 396.999, 480 395.935 C 480 394.871, 480.431 394, 480.957 394 C 482.190 394, 492.250 406.521, 494.374 410.700 C 496.511 414.906, 496.426 416.593, 493.899 420.142 C 492.743 421.766, 491.559 424.873, 491.267 427.047 C 490.800 430.528, 490.979 431, 492.769 431 C 494.559 431, 496.391 429.164, 506.145 417.597 C 506.564 417.100, 510.190 420.138, 514.203 424.349 C 521.393 431.892, 525 433.830, 525 430.150 C 525 428.141, 520.588 421.650, 517.146 418.595 C 514.285 416.055, 514.437 413.415, 517.562 411.367 C 520.319 409.561, 521.436 409.887, 529.215 414.767 C 532.820 417.030, 534.851 415.340, 533.434 411.255 C 531.593 405.947, 520.139 403.059, 514 406.354 C 502.786 412.375, 502.904 412.332, 501.447 410.876 C 499.515 408.944, 495 395.719, 495 391.994 C 495 389.412, 495.455 388.859, 498 388.350 C 502.911 387.368, 501.827 384.385, 492.396 372.941 C 481.943 360.255, 479.615 357.051, 480.332 356.335 C 480.635 356.032, 485.226 356.525, 490.535 357.430 C 504.919 359.881, 506.085 358.911, 501.602 348.220 C 498.129 339.938, 493.763 325.449, 494.160 323.523 C 494.353 322.584, 496.877 326.307, 500 332.139 C 503.155 338.032, 507.631 344.624, 510.500 347.604 C 514.848 352.120, 516.282 352.957, 521.500 354.022 C 528.881 355.528, 551.299 354.839, 555.231 352.984 C 556.733 352.276, 558.230 350.851, 558.558 349.818 C 559.339 347.355, 555.620 341.199, 548.399 333 C 541.214 324.844, 533.179 314.011, 529.485 307.500 C 526.217 301.742, 526.402 301.841, 538 312.074 C 549.096 321.864, 554.759 325.954, 562 329.403 C 567.889 332.209, 569.393 332.496, 578 332.453 C 585.691 332.416, 590.082 331.711, 601.055 328.756 C 622.067 323.097, 642 315.441, 642 313.031 C 642 311.636, 636.322 307.778, 628.806 304.065 C 614.149 296.823, 572 262.329, 572 257.575 C 572 256.717, 579.632 260.679, 584.803 264.222 C 596.404 272.168, 625.895 283.854, 643.477 287.470 C 667.155 292.341, 687.117 285.652, 717.467 262.679 C 727.114 255.376, 738 244.769, 738 242.670 C 738 240.473, 733.029 239.187, 720 238.012 C 689.914 235.300, 625 223.553, 625 220.821 C 625 219.634, 660.054 219.789, 700.616 221.157 L 735.733 222.341 745.770 213.650 C 760.779 200.654, 768.127 191.086, 781.214 167.500 C 786.876 157.296, 788.589 153.414, 787.532 153.185 C 786.734 153.011, 781.226 153.566, 775.291 154.417 C 757.695 156.942, 686.183 161.131, 665 160.878 C 656.770 160.780, 656.659 160.747, 661.500 159.867 C 722.142 148.841, 754.686 140.102, 775.012 129.384 C 784.895 124.174, 792.001 117.834, 798.213 108.686 C 804.096 100.023, 813.219 80.376, 817.801 66.500 C 821.799 54.393, 825.423 39.710, 824.824 38.042 C 824.646 37.545, 818.875 40.539, 812 44.695 C 794.630 55.195, 780.344 62.574, 760.500 71.294 C 703.675 96.265, 628.869 119.463, 574.500 128.973 C 558.159 131.831, 549.863 134.410, 546.641 137.632 C 544.919 139.354, 543.053 143.349, 541.378 148.900 C 537.944 160.277, 531.266 174.118, 525.523 181.757 C 514.588 196.304, 482.088 220, 473.071 220 C 470.606 220, 469.641 219.244, 467.547 215.670 C 461.963 206.142, 456.311 182.477, 455.283 164.320 C 454.638 152.929, 455.317 151, 459.973 151 C 470.618 151, 474.267 143.622, 467.389 136.009 C 463.299 131.481, 458.814 129.809, 444.500 127.476 C 434.051 125.772, 411.228 125.531, 405.698 127.067 C 399.541 128.777, 397.741 132.756, 382.897 177.500 C 372.931 207.536, 367.763 219.320, 364.340 219.808 C 358.505 220.639, 334.816 205.606, 323.422 193.841 C 310.842 180.852, 302.324 166.711, 296.557 149.242 C 291.918 135.190, 290.482 134.470, 251.216 126.503 C 169.219 109.867, 82.494 78.532, 27.113 45.533 C 19.237 40.840, 12.615 37, 12.397 37 C 12.178 37, 12 37.431, 12 37.957" stroke="none" fill="#040404" fill-rule="evenodd"/><path d="M 757 38.631 C 724.156 55.637, 710.864 62.086, 695.324 68.558 C 652.244 86.499, 602.958 101.173, 549.220 112.057 C 541.196 113.682, 533.033 115.796, 531.079 116.756 C 526.399 119.054, 523.732 123.259, 520.481 133.468 C 513.691 154.793, 494.928 176.429, 477.037 183.565 C 465.645 188.109, 465.092 189.658, 470.273 202.500 C 473.385 210.215, 473.625 210.510, 477 210.776 C 482.742 211.228, 495.667 203.240, 506.570 192.500 C 520.725 178.556, 527.491 167.202, 534.875 145 C 537.161 138.125, 539.383 131.947, 539.812 131.271 C 540.607 130.018, 557.312 125.777, 594 117.513 C 651.772 104.499, 692.468 92.269, 733.220 75.673 C 749.515 69.037, 758.282 64.784, 762.858 61.294 C 766.906 58.207, 770.406 51.011, 772.564 41.337 C 775.363 28.789, 775.845 28.873, 757 38.631 M 66.986 34.517 C 66.089 35.597, 65.922 37.936, 66.405 42.648 C 67.958 57.811, 72.542 62.487, 94.500 71.304 C 100.550 73.734, 109.100 77.417, 113.500 79.489 C 134.845 89.543, 207.794 110.297, 261 121.454 C 275.575 124.510, 289.436 127.730, 291.802 128.608 C 297.349 130.667, 299.896 134.701, 303.954 147.852 C 309.540 165.953, 317.724 178.842, 332.533 192.859 C 345.886 205.499, 359.283 210.992, 365.735 206.473 C 366.938 205.630, 368.690 202.488, 369.645 199.458 C 372.341 190.903, 371.436 189.499, 359.145 183.160 C 339.210 172.880, 322.270 152.749, 316.472 132.448 C 313.896 123.429, 311.216 119.283, 306.477 116.989 C 304.192 115.883, 294.937 113.439, 285.911 111.559 C 232.353 100.401, 196.399 90.242, 159 75.698 C 140.973 68.688, 130.664 63.933, 98.777 47.923 C 82.430 39.716, 68.873 33, 68.650 33 C 68.427 33, 67.678 33.683, 66.986 34.517" stroke="none" fill="#fc5c3c" fill-rule="evenodd"/></svg>